<svg id="visual" viewBox="0 0 2560 1000" width="2560" height="1000" xmlns="http://www.w3.org/2000/svg" xmlns:xlink="http://www.w3.org/1999/xlink" version="1.1"><rect x="0" y="0" width="2560" height="1000" fill="#1F1F1F"></rect><path d="M0 276L23.7 285.7C47.3 295.3 94.7 314.7 142 314.8C189.3 315 236.7 296 284.2 307.5C331.7 319 379.3 361 426.8 359.3C474.3 357.7 521.7 312.3 569 300C616.3 287.7 663.7 308.3 711 331C758.3 353.7 805.7 378.3 853.2 386.2C900.7 394 948.3 385 995.8 369C1043.3 353 1090.7 330 1138 331C1185.3 332 1232.7 357 1280 357C1327.3 357 1374.7 332 1422 316.3C1469.3 300.7 1516.7 294.3 1564.2 290.7C1611.7 287 1659.3 286 1706.8 283.7C1754.3 281.3 1801.7 277.7 1849 275C1896.3 272.3 1943.7 270.7 1991 268.7C2038.3 266.7 2085.7 264.3 2133.2 286.8C2180.7 309.3 2228.3 356.7 2275.8 361.5C2323.3 366.3 2370.7 328.7 2418 324.8C2465.3 321 2512.7 351 2536.3 366L2560 381L2560 0L2536.3 0C2512.7 0 2465.3 0 2418 0C2370.7 0 2323.3 0 2275.8 0C2228.3 0 2180.7 0 2133.2 0C2085.7 0 2038.3 0 1991 0C1943.7 0 1896.3 0 1849 0C1801.7 0 1754.3 0 1706.8 0C1659.3 0 1611.7 0 1564.2 0C1516.7 0 1469.3 0 1422 0C1374.7 0 1327.3 0 1280 0C1232.7 0 1185.3 0 1138 0C1090.7 0 1043.3 0 995.8 0C948.3 0 900.7 0 853.2 0C805.7 0 758.3 0 711 0C663.7 0 616.3 0 569 0C521.7 0 474.3 0 426.8 0C379.3 0 331.7 0 284.2 0C236.7 0 189.3 0 142 0C94.7 0 47.3 0 23.7 0L0 0Z" fill="#ff0095"></path><path d="M0 313L23.7 302.8C47.3 292.7 94.7 272.3 142 267C189.3 261.7 236.7 271.3 284.2 269.3C331.7 267.3 379.3 253.7 426.8 247.2C474.3 240.7 521.7 241.3 569 253.7C616.3 266 663.7 290 711 296C758.3 302 805.7 290 853.2 277.8C900.7 265.7 948.3 253.3 995.8 260.3C1043.3 267.3 1090.7 293.7 1138 299C1185.3 304.3 1232.7 288.7 1280 288.3C1327.3 288 1374.7 303 1422 313.8C1469.3 324.7 1516.7 331.3 1564.2 319C1611.7 306.7 1659.3 275.3 1706.8 264.8C1754.3 254.3 1801.7 264.7 1849 276C1896.3 287.3 1943.7 299.7 1991 310.3C2038.3 321 2085.7 330 2133.2 331.3C2180.7 332.7 2228.3 326.3 2275.8 315.2C2323.3 304 2370.7 288 2418 283.5C2465.3 279 2512.7 286 2536.3 289.5L2560 293L2560 0L2536.3 0C2512.7 0 2465.3 0 2418 0C2370.7 0 2323.3 0 2275.8 0C2228.3 0 2180.7 0 2133.2 0C2085.7 0 2038.3 0 1991 0C1943.7 0 1896.3 0 1849 0C1801.7 0 1754.3 0 1706.8 0C1659.3 0 1611.7 0 1564.2 0C1516.7 0 1469.3 0 1422 0C1374.7 0 1327.3 0 1280 0C1232.7 0 1185.3 0 1138 0C1090.7 0 1043.3 0 995.8 0C948.3 0 900.7 0 853.2 0C805.7 0 758.3 0 711 0C663.7 0 616.3 0 569 0C521.7 0 474.3 0 426.8 0C379.3 0 331.7 0 284.2 0C236.7 0 189.3 0 142 0C94.7 0 47.3 0 23.7 0L0 0Z" fill="#cf008b"></path><path d="M0 286L23.7 277.2C47.3 268.3 94.7 250.7 142 248.2C189.3 245.7 236.7 258.3 284.2 254.3C331.7 250.3 379.3 229.7 426.8 232C474.3 234.3 521.7 259.7 569 264.8C616.3 270 663.7 255 711 237C758.3 219 805.7 198 853.2 202.8C900.7 207.7 948.3 238.3 995.8 245.3C1043.3 252.3 1090.7 235.7 1138 230.5C1185.3 225.3 1232.7 231.7 1280 225C1327.3 218.3 1374.7 198.7 1422 205.2C1469.3 211.7 1516.7 244.3 1564.2 254.5C1611.7 264.7 1659.3 252.3 1706.8 249.5C1754.3 246.7 1801.7 253.3 1849 243C1896.3 232.7 1943.7 205.3 1991 199.5C2038.3 193.7 2085.7 209.3 2133.2 215C2180.7 220.7 2228.3 216.3 2275.8 226C2323.3 235.7 2370.7 259.3 2418 270.2C2465.3 281 2512.7 279 2536.3 278L2560 277L2560 0L2536.3 0C2512.7 0 2465.3 0 2418 0C2370.7 0 2323.3 0 2275.8 0C2228.3 0 2180.7 0 2133.2 0C2085.7 0 2038.3 0 1991 0C1943.7 0 1896.3 0 1849 0C1801.7 0 1754.3 0 1706.8 0C1659.3 0 1611.7 0 1564.2 0C1516.7 0 1469.3 0 1422 0C1374.7 0 1327.3 0 1280 0C1232.7 0 1185.3 0 1138 0C1090.7 0 1043.3 0 995.8 0C948.3 0 900.7 0 853.2 0C805.7 0 758.3 0 711 0C663.7 0 616.3 0 569 0C521.7 0 474.3 0 426.8 0C379.3 0 331.7 0 284.2 0C236.7 0 189.3 0 142 0C94.7 0 47.3 0 23.7 0L0 0Z" fill="#a1007d"></path><path d="M0 145L23.7 159.3C47.3 173.7 94.7 202.3 142 207.7C189.3 213 236.7 195 284.2 188.8C331.7 182.7 379.3 188.3 426.8 194C474.3 199.7 521.7 205.3 569 197.5C616.3 189.7 663.7 168.3 711 158.7C758.3 149 805.7 151 853.2 157.8C900.7 164.7 948.3 176.3 995.8 183.7C1043.3 191 1090.7 194 1138 186C1185.3 178 1232.7 159 1280 164.3C1327.3 169.7 1374.7 199.3 1422 199.8C1469.3 200.3 1516.7 171.7 1564.2 158.8C1611.7 146 1659.3 149 1706.8 151.8C1754.3 154.7 1801.7 157.3 1849 167.5C1896.3 177.7 1943.7 195.3 1991 203C2038.3 210.7 2085.7 208.3 2133.2 211.3C2180.7 214.3 2228.3 222.7 2275.8 216.3C2323.3 210 2370.7 189 2418 187.2C2465.3 185.3 2512.7 202.7 2536.3 211.3L2560 220L2560 0L2536.3 0C2512.7 0 2465.3 0 2418 0C2370.7 0 2323.3 0 2275.8 0C2228.3 0 2180.7 0 2133.2 0C2085.7 0 2038.3 0 1991 0C1943.7 0 1896.3 0 1849 0C1801.7 0 1754.3 0 1706.8 0C1659.3 0 1611.7 0 1564.2 0C1516.7 0 1469.3 0 1422 0C1374.7 0 1327.3 0 1280 0C1232.7 0 1185.3 0 1138 0C1090.7 0 1043.3 0 995.8 0C948.3 0 900.7 0 853.2 0C805.7 0 758.3 0 711 0C663.7 0 616.3 0 569 0C521.7 0 474.3 0 426.8 0C379.3 0 331.7 0 284.2 0C236.7 0 189.3 0 142 0C94.7 0 47.3 0 23.7 0L0 0Z" fill="#74026b"></path><path d="M0 159L23.7 158C47.3 157 94.7 155 142 143.8C189.3 132.7 236.7 112.3 284.2 108.7C331.7 105 379.3 118 426.8 124.7C474.3 131.3 521.7 131.7 569 123.7C616.3 115.7 663.7 99.3 711 105.2C758.3 111 805.7 139 853.2 145.3C900.7 151.7 948.3 136.3 995.8 124.2C1043.3 112 1090.7 103 1138 106.2C1185.3 109.3 1232.7 124.7 1280 133.3C1327.3 142 1374.7 144 1422 137.7C1469.3 131.3 1516.7 116.7 1564.2 118.5C1611.7 120.3 1659.3 138.7 1706.8 145.7C1754.3 152.7 1801.7 148.3 1849 141C1896.3 133.7 1943.7 123.3 1991 118.2C2038.3 113 2085.7 113 2133.2 118.7C2180.7 124.3 2228.3 135.7 2275.8 132.3C2323.3 129 2370.7 111 2418 105.7C2465.3 100.3 2512.7 107.7 2536.3 111.3L2560 115L2560 0L2536.3 0C2512.7 0 2465.3 0 2418 0C2370.7 0 2323.3 0 2275.8 0C2228.3 0 2180.7 0 2133.2 0C2085.7 0 2038.3 0 1991 0C1943.7 0 1896.3 0 1849 0C1801.7 0 1754.3 0 1706.8 0C1659.3 0 1611.7 0 1564.2 0C1516.7 0 1469.3 0 1422 0C1374.7 0 1327.3 0 1280 0C1232.7 0 1185.3 0 1138 0C1090.7 0 1043.3 0 995.8 0C948.3 0 900.7 0 853.2 0C805.7 0 758.3 0 711 0C663.7 0 616.3 0 569 0C521.7 0 474.3 0 426.8 0C379.3 0 331.7 0 284.2 0C236.7 0 189.3 0 142 0C94.7 0 47.3 0 23.7 0L0 0Z" fill="#4b0255"></path><path d="M0 62L23.7 61C47.3 60 94.7 58 142 56.5C189.3 55 236.7 54 284.2 51.8C331.7 49.7 379.3 46.3 426.8 51.8C474.3 57.3 521.7 71.7 569 76.5C616.3 81.3 663.7 76.7 711 72.7C758.3 68.7 805.7 65.3 853.2 62.2C900.7 59 948.3 56 995.8 61C1043.3 66 1090.7 79 1138 85.2C1185.3 91.3 1232.7 90.7 1280 92.5C1327.3 94.3 1374.7 98.7 1422 99.3C1469.3 100 1516.7 97 1564.2 96.5C1611.7 96 1659.3 98 1706.8 92.2C1754.3 86.3 1801.7 72.7 1849 70C1896.3 67.3 1943.7 75.7 1991 76.3C2038.3 77 2085.7 70 2133.2 72.3C2180.7 74.7 2228.3 86.3 2275.8 92.3C2323.3 98.3 2370.7 98.7 2418 93C2465.3 87.3 2512.7 75.7 2536.3 69.8L2560 64L2560 0L2536.3 0C2512.7 0 2465.3 0 2418 0C2370.7 0 2323.3 0 2275.8 0C2228.3 0 2180.7 0 2133.2 0C2085.7 0 2038.3 0 1991 0C1943.7 0 1896.3 0 1849 0C1801.7 0 1754.3 0 1706.8 0C1659.3 0 1611.7 0 1564.2 0C1516.7 0 1469.3 0 1422 0C1374.7 0 1327.3 0 1280 0C1232.7 0 1185.3 0 1138 0C1090.7 0 1043.3 0 995.8 0C948.3 0 900.7 0 853.2 0C805.7 0 758.3 0 711 0C663.7 0 616.3 0 569 0C521.7 0 474.3 0 426.8 0C379.3 0 331.7 0 284.2 0C236.7 0 189.3 0 142 0C94.7 0 47.3 0 23.7 0L0 0Z" fill="#25003d"></path></svg>