<svg id="visual" viewBox="0 0 1920 1000" width="1920" height="1000" xmlns="http://www.w3.org/2000/svg" xmlns:xlink="http://www.w3.org/1999/xlink" version="1.1"><rect x="0" y="0" width="1920" height="1000" fill="#1F1F1F"></rect><path d="M0 276L17.8 285.7C35.7 295.3 71.3 314.7 106.8 314.8C142.3 315 177.7 296 213.2 307.5C248.7 319 284.3 361 320 359.3C355.7 357.7 391.3 312.3 426.8 300C462.3 287.7 497.7 308.3 533.2 331C568.7 353.7 604.3 378.3 640 386.2C675.7 394 711.3 385 746.8 369C782.3 353 817.7 330 853.2 331C888.7 332 924.3 357 960 357C995.7 357 1031.3 332 1066.8 316.3C1102.3 300.7 1137.7 294.3 1173.2 290.7C1208.7 287 1244.3 286 1280 283.7C1315.7 281.3 1351.3 277.7 1386.8 275C1422.3 272.3 1457.7 270.7 1493.2 268.7C1528.7 266.7 1564.3 264.3 1600 286.8C1635.7 309.3 1671.3 356.7 1706.8 361.5C1742.3 366.3 1777.7 328.7 1813.2 324.8C1848.7 321 1884.3 351 1902.2 366L1920 381L1920 0L1902.2 0C1884.3 0 1848.7 0 1813.2 0C1777.7 0 1742.3 0 1706.8 0C1671.3 0 1635.7 0 1600 0C1564.3 0 1528.7 0 1493.2 0C1457.7 0 1422.3 0 1386.8 0C1351.3 0 1315.7 0 1280 0C1244.3 0 1208.7 0 1173.2 0C1137.7 0 1102.3 0 1066.8 0C1031.3 0 995.7 0 960 0C924.3 0 888.7 0 853.2 0C817.7 0 782.3 0 746.8 0C711.3 0 675.7 0 640 0C604.3 0 568.7 0 533.2 0C497.7 0 462.3 0 426.8 0C391.3 0 355.7 0 320 0C284.3 0 248.7 0 213.2 0C177.7 0 142.3 0 106.8 0C71.3 0 35.7 0 17.8 0L0 0Z" fill="#ff0095"></path><path d="M0 313L17.8 302.8C35.7 292.7 71.3 272.3 106.8 267C142.3 261.7 177.7 271.3 213.2 269.3C248.7 267.3 284.3 253.7 320 247.2C355.7 240.7 391.3 241.3 426.8 253.7C462.3 266 497.7 290 533.2 296C568.7 302 604.3 290 640 277.8C675.7 265.7 711.3 253.3 746.8 260.3C782.3 267.3 817.7 293.7 853.2 299C888.7 304.3 924.3 288.7 960 288.3C995.7 288 1031.3 303 1066.8 313.8C1102.3 324.7 1137.7 331.3 1173.2 319C1208.7 306.7 1244.3 275.3 1280 264.8C1315.7 254.3 1351.3 264.7 1386.8 276C1422.3 287.3 1457.7 299.7 1493.2 310.3C1528.7 321 1564.3 330 1600 331.3C1635.7 332.7 1671.3 326.3 1706.8 315.2C1742.3 304 1777.7 288 1813.2 283.5C1848.7 279 1884.3 286 1902.2 289.5L1920 293L1920 0L1902.2 0C1884.3 0 1848.7 0 1813.2 0C1777.7 0 1742.3 0 1706.8 0C1671.3 0 1635.7 0 1600 0C1564.3 0 1528.7 0 1493.2 0C1457.7 0 1422.3 0 1386.8 0C1351.3 0 1315.7 0 1280 0C1244.3 0 1208.7 0 1173.2 0C1137.7 0 1102.3 0 1066.8 0C1031.3 0 995.7 0 960 0C924.3 0 888.7 0 853.2 0C817.7 0 782.3 0 746.8 0C711.3 0 675.7 0 640 0C604.3 0 568.7 0 533.2 0C497.7 0 462.3 0 426.8 0C391.3 0 355.7 0 320 0C284.3 0 248.7 0 213.2 0C177.7 0 142.3 0 106.8 0C71.3 0 35.7 0 17.8 0L0 0Z" fill="#cf008b"></path><path d="M0 286L17.8 277.2C35.7 268.3 71.3 250.7 106.8 248.2C142.3 245.7 177.7 258.3 213.2 254.3C248.7 250.3 284.3 229.7 320 232C355.7 234.3 391.3 259.7 426.8 264.8C462.3 270 497.7 255 533.2 237C568.7 219 604.3 198 640 202.8C675.7 207.7 711.3 238.3 746.8 245.3C782.3 252.3 817.7 235.7 853.2 230.5C888.7 225.3 924.3 231.7 960 225C995.7 218.3 1031.3 198.7 1066.8 205.2C1102.3 211.7 1137.7 244.3 1173.2 254.5C1208.7 264.7 1244.3 252.3 1280 249.5C1315.7 246.7 1351.3 253.3 1386.8 243C1422.3 232.7 1457.7 205.3 1493.2 199.5C1528.7 193.7 1564.3 209.3 1600 215C1635.7 220.7 1671.3 216.3 1706.8 226C1742.3 235.7 1777.7 259.3 1813.2 270.2C1848.7 281 1884.3 279 1902.2 278L1920 277L1920 0L1902.2 0C1884.3 0 1848.7 0 1813.2 0C1777.7 0 1742.3 0 1706.8 0C1671.3 0 1635.7 0 1600 0C1564.3 0 1528.7 0 1493.2 0C1457.7 0 1422.3 0 1386.8 0C1351.3 0 1315.7 0 1280 0C1244.3 0 1208.7 0 1173.2 0C1137.7 0 1102.3 0 1066.8 0C1031.3 0 995.7 0 960 0C924.3 0 888.7 0 853.2 0C817.7 0 782.3 0 746.8 0C711.3 0 675.7 0 640 0C604.3 0 568.7 0 533.2 0C497.7 0 462.3 0 426.8 0C391.3 0 355.7 0 320 0C284.3 0 248.7 0 213.2 0C177.7 0 142.3 0 106.8 0C71.3 0 35.7 0 17.8 0L0 0Z" fill="#a1007d"></path><path d="M0 145L17.8 159.3C35.7 173.7 71.3 202.3 106.8 207.7C142.3 213 177.7 195 213.2 188.8C248.7 182.7 284.3 188.3 320 194C355.7 199.7 391.3 205.3 426.8 197.5C462.3 189.7 497.7 168.3 533.2 158.7C568.7 149 604.3 151 640 157.8C675.7 164.7 711.3 176.3 746.8 183.7C782.3 191 817.7 194 853.2 186C888.7 178 924.3 159 960 164.3C995.7 169.7 1031.3 199.3 1066.8 199.8C1102.3 200.3 1137.7 171.7 1173.2 158.8C1208.7 146 1244.3 149 1280 151.8C1315.7 154.7 1351.3 157.3 1386.8 167.5C1422.3 177.7 1457.7 195.3 1493.2 203C1528.7 210.7 1564.3 208.3 1600 211.3C1635.7 214.3 1671.3 222.7 1706.8 216.3C1742.3 210 1777.7 189 1813.2 187.2C1848.7 185.3 1884.3 202.7 1902.2 211.3L1920 220L1920 0L1902.2 0C1884.3 0 1848.7 0 1813.2 0C1777.7 0 1742.3 0 1706.8 0C1671.3 0 1635.7 0 1600 0C1564.3 0 1528.7 0 1493.2 0C1457.7 0 1422.3 0 1386.8 0C1351.3 0 1315.7 0 1280 0C1244.3 0 1208.7 0 1173.2 0C1137.7 0 1102.3 0 1066.8 0C1031.3 0 995.7 0 960 0C924.3 0 888.7 0 853.2 0C817.7 0 782.3 0 746.8 0C711.3 0 675.7 0 640 0C604.3 0 568.7 0 533.2 0C497.7 0 462.3 0 426.8 0C391.3 0 355.7 0 320 0C284.3 0 248.7 0 213.2 0C177.7 0 142.3 0 106.8 0C71.3 0 35.7 0 17.8 0L0 0Z" fill="#74026b"></path><path d="M0 159L17.8 158C35.7 157 71.3 155 106.8 143.8C142.3 132.7 177.7 112.3 213.2 108.7C248.7 105 284.3 118 320 124.7C355.7 131.3 391.3 131.7 426.8 123.7C462.3 115.7 497.7 99.3 533.2 105.2C568.7 111 604.3 139 640 145.3C675.7 151.7 711.3 136.3 746.8 124.2C782.3 112 817.7 103 853.2 106.2C888.7 109.3 924.3 124.7 960 133.3C995.7 142 1031.3 144 1066.8 137.7C1102.3 131.3 1137.7 116.7 1173.2 118.5C1208.7 120.3 1244.3 138.7 1280 145.7C1315.7 152.7 1351.3 148.3 1386.8 141C1422.3 133.7 1457.7 123.3 1493.2 118.2C1528.7 113 1564.3 113 1600 118.7C1635.7 124.3 1671.3 135.7 1706.8 132.3C1742.3 129 1777.7 111 1813.2 105.7C1848.7 100.3 1884.3 107.7 1902.2 111.3L1920 115L1920 0L1902.2 0C1884.3 0 1848.7 0 1813.2 0C1777.7 0 1742.3 0 1706.8 0C1671.3 0 1635.7 0 1600 0C1564.3 0 1528.7 0 1493.2 0C1457.7 0 1422.3 0 1386.8 0C1351.3 0 1315.7 0 1280 0C1244.3 0 1208.7 0 1173.2 0C1137.7 0 1102.3 0 1066.8 0C1031.3 0 995.7 0 960 0C924.3 0 888.7 0 853.2 0C817.7 0 782.3 0 746.8 0C711.3 0 675.7 0 640 0C604.3 0 568.7 0 533.2 0C497.7 0 462.3 0 426.8 0C391.3 0 355.7 0 320 0C284.3 0 248.7 0 213.2 0C177.7 0 142.3 0 106.8 0C71.3 0 35.7 0 17.8 0L0 0Z" fill="#4b0255"></path><path d="M0 62L17.8 61C35.7 60 71.3 58 106.8 56.5C142.3 55 177.7 54 213.2 51.8C248.7 49.7 284.3 46.3 320 51.8C355.7 57.3 391.3 71.7 426.8 76.5C462.3 81.3 497.7 76.7 533.2 72.7C568.7 68.7 604.3 65.3 640 62.2C675.7 59 711.3 56 746.8 61C782.3 66 817.7 79 853.2 85.2C888.7 91.3 924.3 90.7 960 92.5C995.7 94.3 1031.3 98.7 1066.8 99.3C1102.3 100 1137.7 97 1173.2 96.5C1208.7 96 1244.3 98 1280 92.2C1315.7 86.3 1351.3 72.7 1386.8 70C1422.3 67.3 1457.7 75.7 1493.2 76.3C1528.7 77 1564.3 70 1600 72.3C1635.7 74.7 1671.3 86.3 1706.8 92.3C1742.3 98.3 1777.7 98.7 1813.2 93C1848.7 87.3 1884.3 75.7 1902.2 69.8L1920 64L1920 0L1902.2 0C1884.3 0 1848.7 0 1813.2 0C1777.7 0 1742.3 0 1706.8 0C1671.3 0 1635.7 0 1600 0C1564.3 0 1528.7 0 1493.2 0C1457.7 0 1422.3 0 1386.8 0C1351.3 0 1315.7 0 1280 0C1244.3 0 1208.7 0 1173.2 0C1137.7 0 1102.3 0 1066.8 0C1031.3 0 995.7 0 960 0C924.3 0 888.7 0 853.2 0C817.7 0 782.3 0 746.8 0C711.3 0 675.7 0 640 0C604.3 0 568.7 0 533.2 0C497.7 0 462.3 0 426.8 0C391.3 0 355.7 0 320 0C284.3 0 248.7 0 213.2 0C177.7 0 142.3 0 106.8 0C71.3 0 35.7 0 17.8 0L0 0Z" fill="#25003d"></path></svg>