<svg id="visual" viewBox="0 0 960 300" width="960" height="300" xmlns="http://www.w3.org/2000/svg" xmlns:xlink="http://www.w3.org/1999/xlink" version="1.1"><rect x="0" y="0" width="960" height="300" fill="#1F1F1F"></rect><path d="M0 122L7.3 118.7C14.7 115.3 29.3 108.7 43.8 104.7C58.3 100.7 72.7 99.3 87.2 101C101.7 102.7 116.3 107.3 131 105.8C145.7 104.3 160.3 96.7 174.8 96.3C189.3 96 203.7 103 218.2 108C232.7 113 247.3 116 261.8 111C276.3 106 290.7 93 305.2 86.8C319.7 80.7 334.3 81.3 349 83.5C363.7 85.7 378.3 89.3 392.8 91.8C407.3 94.3 421.7 95.7 436.2 95C450.7 94.3 465.3 91.7 480 93.7C494.7 95.7 509.3 102.3 523.8 107.3C538.3 112.3 552.7 115.7 567.2 112.8C581.7 110 596.3 101 611 101.8C625.7 102.7 640.3 113.3 654.8 113.8C669.3 114.3 683.7 104.7 698.2 99.3C712.7 94 727.3 93 741.8 96.2C756.3 99.3 770.7 106.7 785.2 109.5C799.7 112.3 814.3 110.7 829 112C843.7 113.3 858.3 117.7 872.8 119.2C887.3 120.7 901.7 119.3 916.2 118C930.7 116.7 945.3 115.3 952.7 114.7L960 114L960 0L952.7 0C945.3 0 930.7 0 916.2 0C901.7 0 887.3 0 872.8 0C858.3 0 843.7 0 829 0C814.3 0 799.7 0 785.2 0C770.7 0 756.3 0 741.8 0C727.3 0 712.7 0 698.2 0C683.7 0 669.3 0 654.8 0C640.3 0 625.7 0 611 0C596.3 0 581.7 0 567.2 0C552.7 0 538.3 0 523.8 0C509.3 0 494.7 0 480 0C465.3 0 450.7 0 436.2 0C421.7 0 407.3 0 392.8 0C378.3 0 363.7 0 349 0C334.3 0 319.7 0 305.2 0C290.7 0 276.3 0 261.8 0C247.3 0 232.7 0 218.2 0C203.7 0 189.3 0 174.8 0C160.3 0 145.7 0 131 0C116.3 0 101.7 0 87.2 0C72.7 0 58.3 0 43.8 0C29.3 0 14.7 0 7.3 0L0 0Z" fill="#ff0095"></path><path d="M0 85L7.3 82.7C14.7 80.3 29.3 75.7 43.8 76.2C58.3 76.7 72.7 82.3 87.2 83.3C101.7 84.3 116.3 80.7 131 77.2C145.7 73.7 160.3 70.3 174.8 68.7C189.3 67 203.7 67 218.2 68.7C232.7 70.3 247.3 73.7 261.8 79.3C276.3 85 290.7 93 305.2 97.3C319.7 101.7 334.3 102.3 349 96.2C363.7 90 378.3 77 392.8 73.3C407.3 69.7 421.7 75.3 436.2 77.3C450.7 79.3 465.3 77.7 480 76.2C494.7 74.7 509.3 73.3 523.8 75.8C538.3 78.3 552.7 84.7 567.2 88C581.7 91.3 596.3 91.7 611 89.3C625.7 87 640.3 82 654.8 83C669.3 84 683.7 91 698.2 92.5C712.7 94 727.3 90 741.8 88.5C756.3 87 770.7 88 785.2 88C799.7 88 814.3 87 829 85.7C843.7 84.3 858.3 82.7 872.8 80.5C887.3 78.3 901.7 75.7 916.2 74.5C930.7 73.3 945.3 73.7 952.7 73.8L960 74L960 0L952.7 0C945.3 0 930.7 0 916.2 0C901.7 0 887.3 0 872.8 0C858.3 0 843.7 0 829 0C814.3 0 799.7 0 785.2 0C770.7 0 756.3 0 741.8 0C727.3 0 712.7 0 698.2 0C683.7 0 669.3 0 654.8 0C640.3 0 625.7 0 611 0C596.3 0 581.7 0 567.2 0C552.7 0 538.3 0 523.8 0C509.3 0 494.7 0 480 0C465.3 0 450.7 0 436.2 0C421.7 0 407.3 0 392.8 0C378.3 0 363.7 0 349 0C334.3 0 319.7 0 305.2 0C290.7 0 276.3 0 261.8 0C247.3 0 232.7 0 218.2 0C203.7 0 189.3 0 174.8 0C160.3 0 145.7 0 131 0C116.3 0 101.7 0 87.2 0C72.7 0 58.3 0 43.8 0C29.3 0 14.7 0 7.3 0L0 0Z" fill="#cf008b"></path><path d="M0 84L7.3 79.2C14.7 74.3 29.3 64.7 43.8 60C58.3 55.3 72.7 55.7 87.2 60.3C101.7 65 116.3 74 131 73C145.7 72 160.3 61 174.8 59.2C189.3 57.3 203.7 64.7 218.2 68C232.7 71.3 247.3 70.7 261.8 72.8C276.3 75 290.7 80 305.2 78C319.7 76 334.3 67 349 66.7C363.7 66.3 378.3 74.7 392.8 73.5C407.3 72.3 421.7 61.7 436.2 62.3C450.7 63 465.3 75 480 77.3C494.7 79.7 509.3 72.3 523.8 69.5C538.3 66.7 552.7 68.3 567.2 67.8C581.7 67.3 596.3 64.7 611 62C625.7 59.3 640.3 56.7 654.8 58C669.3 59.3 683.7 64.7 698.2 65.8C712.7 67 727.3 64 741.8 66.5C756.3 69 770.7 77 785.2 75.7C799.7 74.3 814.3 63.7 829 63.7C843.7 63.7 858.3 74.3 872.8 80C887.3 85.7 901.7 86.3 916.2 82.3C930.7 78.3 945.3 69.7 952.7 65.3L960 61L960 0L952.7 0C945.3 0 930.7 0 916.2 0C901.7 0 887.3 0 872.8 0C858.3 0 843.7 0 829 0C814.3 0 799.7 0 785.2 0C770.7 0 756.3 0 741.8 0C727.3 0 712.7 0 698.2 0C683.7 0 669.3 0 654.8 0C640.3 0 625.7 0 611 0C596.3 0 581.7 0 567.2 0C552.7 0 538.3 0 523.8 0C509.3 0 494.7 0 480 0C465.3 0 450.7 0 436.2 0C421.7 0 407.3 0 392.8 0C378.3 0 363.7 0 349 0C334.3 0 319.7 0 305.2 0C290.7 0 276.3 0 261.8 0C247.3 0 232.7 0 218.2 0C203.7 0 189.3 0 174.8 0C160.3 0 145.7 0 131 0C116.3 0 101.7 0 87.2 0C72.7 0 58.3 0 43.8 0C29.3 0 14.7 0 7.3 0L0 0Z" fill="#a1007d"></path><path d="M0 52L7.3 52.3C14.7 52.7 29.3 53.3 43.8 51C58.3 48.7 72.7 43.3 87.2 45C101.7 46.7 116.3 55.3 131 56.5C145.7 57.7 160.3 51.3 174.8 49.3C189.3 47.3 203.7 49.7 218.2 53.3C232.7 57 247.3 62 261.8 62.8C276.3 63.7 290.7 60.3 305.2 59.3C319.7 58.3 334.3 59.7 349 60.7C363.7 61.7 378.3 62.3 392.8 62.3C407.3 62.3 421.7 61.7 436.2 58C450.7 54.3 465.3 47.7 480 46.2C494.7 44.7 509.3 48.3 523.8 48.2C538.3 48 552.7 44 567.2 41.5C581.7 39 596.3 38 611 40.7C625.7 43.3 640.3 49.7 654.8 54.7C669.3 59.7 683.7 63.3 698.2 65.3C712.7 67.3 727.3 67.7 741.8 62.8C756.3 58 770.7 48 785.2 44C799.7 40 814.3 42 829 43.7C843.7 45.3 858.3 46.7 872.8 45.7C887.3 44.7 901.7 41.3 916.2 41.5C930.7 41.7 945.3 45.3 952.7 47.2L960 49L960 0L952.7 0C945.3 0 930.7 0 916.2 0C901.7 0 887.3 0 872.8 0C858.3 0 843.7 0 829 0C814.3 0 799.7 0 785.2 0C770.7 0 756.3 0 741.8 0C727.3 0 712.7 0 698.2 0C683.7 0 669.3 0 654.8 0C640.3 0 625.7 0 611 0C596.3 0 581.7 0 567.2 0C552.7 0 538.3 0 523.8 0C509.3 0 494.7 0 480 0C465.3 0 450.7 0 436.2 0C421.7 0 407.3 0 392.8 0C378.3 0 363.7 0 349 0C334.3 0 319.7 0 305.2 0C290.7 0 276.3 0 261.8 0C247.3 0 232.7 0 218.2 0C203.7 0 189.3 0 174.8 0C160.3 0 145.7 0 131 0C116.3 0 101.7 0 87.2 0C72.7 0 58.3 0 43.8 0C29.3 0 14.7 0 7.3 0L0 0Z" fill="#74026b"></path><path d="M0 39L7.3 36.8C14.7 34.7 29.3 30.3 43.8 29C58.3 27.7 72.7 29.3 87.2 29.3C101.7 29.3 116.3 27.7 131 26.5C145.7 25.3 160.3 24.7 174.8 26.5C189.3 28.3 203.7 32.7 218.2 36C232.7 39.3 247.3 41.7 261.8 43.3C276.3 45 290.7 46 305.2 45C319.7 44 334.3 41 349 37C363.7 33 378.3 28 392.8 29.5C407.3 31 421.7 39 436.2 43.2C450.7 47.3 465.3 47.7 480 46.3C494.7 45 509.3 42 523.8 38C538.3 34 552.7 29 567.2 29.2C581.7 29.3 596.3 34.7 611 37.7C625.7 40.7 640.3 41.3 654.8 40.3C669.3 39.3 683.7 36.7 698.2 35.3C712.7 34 727.3 34 741.8 34.3C756.3 34.7 770.7 35.3 785.2 37.7C799.7 40 814.3 44 829 45.2C843.7 46.3 858.3 44.7 872.8 44.3C887.3 44 901.7 45 916.2 45.2C930.7 45.3 945.3 44.7 952.7 44.3L960 44L960 0L952.7 0C945.3 0 930.7 0 916.2 0C901.7 0 887.3 0 872.8 0C858.3 0 843.7 0 829 0C814.3 0 799.7 0 785.2 0C770.7 0 756.3 0 741.8 0C727.3 0 712.7 0 698.2 0C683.7 0 669.3 0 654.8 0C640.3 0 625.7 0 611 0C596.3 0 581.7 0 567.2 0C552.7 0 538.3 0 523.8 0C509.3 0 494.7 0 480 0C465.3 0 450.7 0 436.2 0C421.7 0 407.3 0 392.8 0C378.3 0 363.7 0 349 0C334.3 0 319.7 0 305.2 0C290.7 0 276.3 0 261.8 0C247.3 0 232.7 0 218.2 0C203.7 0 189.3 0 174.8 0C160.3 0 145.7 0 131 0C116.3 0 101.7 0 87.2 0C72.7 0 58.3 0 43.8 0C29.3 0 14.7 0 7.3 0L0 0Z" fill="#4b0255"></path><path d="M0 12L7.3 12.7C14.7 13.3 29.3 14.7 43.8 15C58.3 15.3 72.7 14.7 87.2 14.3C101.7 14 116.3 14 131 15.7C145.7 17.3 160.3 20.7 174.8 21.3C189.3 22 203.7 20 218.2 19.8C232.7 19.7 247.3 21.3 261.8 20.3C276.3 19.3 290.7 15.7 305.2 14.2C319.7 12.7 334.3 13.3 349 15.2C363.7 17 378.3 20 392.8 22.5C407.3 25 421.7 27 436.2 27.8C450.7 28.7 465.3 28.3 480 26.3C494.7 24.3 509.3 20.7 523.8 21C538.3 21.3 552.7 25.7 567.2 26C581.7 26.3 596.3 22.7 611 22C625.7 21.3 640.3 23.7 654.8 25.2C669.3 26.7 683.7 27.3 698.2 27.5C712.7 27.7 727.3 27.3 741.8 26.3C756.3 25.3 770.7 23.7 785.2 22.3C799.7 21 814.3 20 829 18.3C843.7 16.7 858.3 14.3 872.8 15.3C887.3 16.3 901.7 20.7 916.2 21.5C930.7 22.3 945.3 19.7 952.7 18.3L960 17L960 0L952.7 0C945.3 0 930.7 0 916.2 0C901.7 0 887.3 0 872.8 0C858.3 0 843.7 0 829 0C814.3 0 799.7 0 785.2 0C770.7 0 756.3 0 741.8 0C727.3 0 712.7 0 698.2 0C683.7 0 669.3 0 654.8 0C640.3 0 625.7 0 611 0C596.3 0 581.7 0 567.2 0C552.7 0 538.3 0 523.8 0C509.3 0 494.7 0 480 0C465.3 0 450.7 0 436.2 0C421.7 0 407.3 0 392.8 0C378.3 0 363.7 0 349 0C334.3 0 319.7 0 305.2 0C290.7 0 276.3 0 261.8 0C247.3 0 232.7 0 218.2 0C203.7 0 189.3 0 174.8 0C160.3 0 145.7 0 131 0C116.3 0 101.7 0 87.2 0C72.7 0 58.3 0 43.8 0C29.3 0 14.7 0 7.3 0L0 0Z" fill="#25003d"></path></svg>